<svg xmlns="http://www.w3.org/2000/svg" xmlns:xlink="http://www.w3.org/1999/xlink" x="0px" y="0px" width="240px" height="120px" viewBox="0 0 240 120">
 <!-- icon name ic_home_24px-->
<g transform="translate(18, 18)"><g class="nc-icon-wrapper" fill="#444444">
        <path d="M10 20v-6h4v6h5v-8h3L12 3 2 12h3v8z"/>
    </g></g>

 <!-- icon name ic_archive_24px-->
<g transform="translate(78, 18)"><g class="nc-icon-wrapper" fill="#444444">
        <path d="M20.54 5.23l-1.39-1.68C18.88 3.21 18.47 3 18 3H6c-.47 0-.88.21-1.16.55L3.46 5.23C3.17 5.57 3 6.02 3 6.5V19c0 1.1.9 2 2 2h14c1.1 0 2-.9 2-2V6.5c0-.48-.17-.93-.46-1.27zM12 17.5L6.5 12H10v-2h4v2h3.5L12 17.5zM5.12 5l.81-1h12l.94 1H5.12z"/>
    </g></g>

 <!-- icon name ic_library_books_24px-->
<g transform="translate(138, 18)"><g class="nc-icon-wrapper" fill="#444444">
        <path d="M4 6H2v14c0 1.1.9 2 2 2h14v-2H4V6zm16-4H8c-1.1 0-2 .9-2 2v12c0 1.1.9 2 2 2h12c1.1 0 2-.9 2-2V4c0-1.1-.9-2-2-2zm-1 9H9V9h10v2zm-4 4H9v-2h6v2zm4-8H9V5h10v2z"/>
    </g></g>

 <!-- icon name ic_border_color_24px-->
<g transform="translate(198, 18)"><g class="nc-icon-wrapper" fill="#444444">
        <path d="M17.75 7L14 3.25l-10 10V17h3.75l10-10zm2.96-2.96c.39-.39.39-1.02 0-1.41L18.37.29c-.39-.39-1.02-.39-1.41 0L15 2.25 18.75 6l1.96-1.96z"/>
        <path fill-opacity=".36" d="M0 20h24v4H0z"/>
    </g></g>

 <!-- icon name ic_home_24px.active-->
<g transform="translate(18, 78)"><g class="nc-icon-wrapper" fill="#FF6155">
        <path d="M10 20v-6h4v6h5v-8h3L12 3 2 12h3v8z"/>
    </g></g>

 <!-- icon name ic_archive_24px.active-->
<g transform="translate(78, 78)"><g class="nc-icon-wrapper" fill="#FF6155">
        <path d="M20.54 5.23l-1.39-1.68C18.88 3.21 18.47 3 18 3H6c-.47 0-.88.21-1.16.55L3.46 5.23C3.17 5.57 3 6.02 3 6.5V19c0 1.1.9 2 2 2h14c1.1 0 2-.9 2-2V6.5c0-.48-.17-.93-.46-1.27zM12 17.5L6.5 12H10v-2h4v2h3.5L12 17.5zM5.12 5l.81-1h12l.94 1H5.12z"/>
    </g></g>

 <!-- icon name ic_library_books_24px.active-->
<g transform="translate(138, 78)"><g class="nc-icon-wrapper" fill="#FF6155">
        <path d="M4 6H2v14c0 1.1.9 2 2 2h14v-2H4V6zm16-4H8c-1.1 0-2 .9-2 2v12c0 1.1.9 2 2 2h12c1.1 0 2-.9 2-2V4c0-1.1-.9-2-2-2zm-1 9H9V9h10v2zm-4 4H9v-2h6v2zm4-8H9V5h10v2z"/>
    </g></g>

 <!-- icon name ic_border_color_24px.active-->
<g transform="translate(198, 78)"><g class="nc-icon-wrapper" fill="#FF6155">
        <path d="M17.75 7L14 3.25l-10 10V17h3.75l10-10zm2.96-2.96c.39-.39.39-1.02 0-1.41L18.37.29c-.39-.39-1.02-.39-1.41 0L15 2.25 18.75 6l1.96-1.96z"/>
        <path fill-opacity=".36" d="M0 20h24v4H0z"/>
    </g></g>
</svg>
